<svg width="204" height="13" viewBox="0 0 204 13" fill="none" xmlns="http://www.w3.org/2000/svg">
<path d="M3.40183 11.916V2.70002H-0.00017184V0.216015H9.86383V2.70002H6.46183V11.916H3.40183ZM15.5933 12.132C12.1013 12.132 10.5713 9.45002 10.5713 6.06602C10.5713 2.68202 12.1013 1.43051e-05 15.5933 1.43051e-05C19.0853 1.43051e-05 20.6153 2.68202 20.6153 6.06602C20.6153 9.45002 19.0853 12.132 15.5933 12.132ZM15.5933 9.63002C16.9253 9.63002 17.5553 8.19002 17.5553 6.06602C17.5553 3.94202 16.9253 2.50202 15.5933 2.50202C14.2613 2.50202 13.6313 3.94202 13.6313 6.06602C13.6313 8.19002 14.2613 9.63002 15.5933 9.63002ZM21.6828 7.92002V0.198015H24.8148V7.92002C24.8148 9.00002 25.2828 9.63002 26.2548 9.63002C27.2268 9.63002 27.6948 9.00002 27.6948 7.92002V0.198015H30.8268V7.92002C30.8268 10.386 29.3148 12.132 26.2548 12.132C23.1948 12.132 21.6828 10.386 21.6828 7.92002ZM41.9383 3.72602C41.9383 5.22002 40.8943 6.48002 39.4363 6.94802L41.7403 11.916H38.3743L36.2323 7.12802H35.3143V11.916H32.2543V0.216015H38.0503C40.3723 0.216015 41.9383 1.78202 41.9383 3.72602ZM35.3143 2.48401V4.89602H37.5283C38.2843 4.89602 38.8783 4.33801 38.8783 3.69002C38.8783 2.95201 38.3203 2.48401 37.4923 2.48401H35.3143ZM42.9518 11.916V0.216015H47.0198C50.7278 0.216015 52.5278 2.62802 52.5278 6.06602C52.5278 9.50402 50.7278 11.916 47.0198 11.916H42.9518ZM46.0118 9.46802H46.7318C48.3518 9.46802 49.4678 8.38802 49.4678 6.06602C49.4678 3.74402 48.3518 2.68202 46.7318 2.68202H46.0118V9.46802ZM62.4153 2.64601H59.7693V9.48602H62.4153V11.916H54.0633V9.48602H56.7093V2.64601H54.0633V0.216015H62.4153V2.64601ZM70.8447 0.216015H74.0307L70.6827 11.916H67.1187L63.7707 0.216015H66.9567L68.9007 8.40602L70.8447 0.216015ZM83.7382 2.64601H81.0922V9.48602H83.7382V11.916H75.3862V9.48602H78.0322V2.64601H75.3862V0.216015H83.7382V2.64601ZM85.5977 11.916V0.216015H89.6657C93.3737 0.216015 95.1737 2.62802 95.1737 6.06602C95.1737 9.50402 93.3737 11.916 89.6657 11.916H85.5977ZM88.6577 9.46802H89.3777C90.9977 9.46802 92.1137 8.38802 92.1137 6.06602C92.1137 3.74402 90.9977 2.68202 89.3777 2.68202H88.6577V9.46802ZM96.6372 11.916V0.216015H105.493L104.989 2.70002H99.6972V4.39202H104.737V6.87602H99.6972V9.43202H105.025L105.529 11.916H96.6372ZM108.811 7.34402C109.387 8.78402 110.359 9.79202 111.853 9.79202C112.897 9.79202 113.509 9.30602 113.509 8.62201C113.509 8.04602 113.239 7.79401 112.159 7.43402L110.575 6.89402C108.613 6.22801 107.299 5.31002 107.299 3.54601C107.299 1.42202 109.063 1.43051e-05 111.619 1.43051e-05C113.779 1.43051e-05 115.309 0.846015 116.119 2.14201L114.157 3.96002C113.671 3.11402 112.861 2.34002 111.619 2.34002C110.737 2.34002 110.251 2.59202 110.251 3.15002C110.251 3.63602 110.575 3.81602 111.457 4.12201L113.023 4.66201C115.039 5.36402 116.461 6.13802 116.461 8.19002C116.461 10.44 114.553 12.132 111.871 12.132C109.369 12.132 107.605 11.124 106.669 9.16201L108.811 7.34402ZM117.636 7.92002V0.198015H120.768V7.92002C120.768 9.00002 121.236 9.63002 122.208 9.63002C123.18 9.63002 123.648 9.00002 123.648 7.92002V0.198015H126.78V7.92002C126.78 10.386 125.268 12.132 122.208 12.132C119.148 12.132 117.636 10.386 117.636 7.92002ZM128.244 11.916V0.216015H134.166C136.452 0.216015 137.946 1.85402 137.946 3.79802C137.946 5.67002 136.362 7.30802 134.346 7.30802H131.304V11.916H128.244ZM131.304 5.00402H133.59C134.364 5.00402 134.886 4.41002 134.886 3.76202C134.886 3.02402 134.4 2.52002 133.554 2.52002H131.304V5.00402ZM138.905 11.916V0.216015H144.827C147.113 0.216015 148.607 1.85402 148.607 3.79802C148.607 5.67002 147.023 7.30802 145.007 7.30802H141.965V11.916H138.905ZM141.965 5.00402H144.251C145.025 5.00402 145.547 4.41002 145.547 3.76202C145.547 3.02402 145.061 2.52002 144.215 2.52002H141.965V5.00402ZM150.143 11.916V0.216015H153.203V9.39602H158.531V11.916H150.143ZM161.182 11.916V7.12802L157.546 0.216015H160.696L162.658 4.19402L164.404 0.216015H167.842L164.242 7.12802V11.916H161.182ZM167.074 11.916V8.40602H170.638V11.916H167.074ZM172.227 6.06602C172.227 2.53802 173.883 1.43051e-05 177.375 1.43051e-05C180.003 1.43051e-05 181.317 1.51202 181.731 3.45602L179.157 4.95002C178.923 3.65402 178.473 2.50202 177.339 2.50202C175.971 2.50202 175.287 4.05002 175.287 6.06602C175.287 8.08202 175.935 9.63002 177.339 9.63002C178.725 9.63002 179.103 7.97402 179.265 6.53402L181.911 8.19002C181.569 10.314 179.985 12.132 177.321 12.132C173.703 12.132 172.227 9.54002 172.227 6.06602ZM187.659 12.132C184.167 12.132 182.637 9.45002 182.637 6.06602C182.637 2.68202 184.167 1.43051e-05 187.659 1.43051e-05C191.151 1.43051e-05 192.681 2.68202 192.681 6.06602C192.681 9.45002 191.151 12.132 187.659 12.132ZM187.659 9.63002C188.991 9.63002 189.621 8.19002 189.621 6.06602C189.621 3.94202 188.991 2.50202 187.659 2.50202C186.327 2.50202 185.697 3.94202 185.697 6.06602C185.697 8.19002 186.327 9.63002 187.659 9.63002ZM193.514 11.916V0.216015H196.7L198.32 3.96002L199.94 0.216015H203.126V11.916H200.444V4.53602L198.464 8.62201H198.176L196.196 4.53602V11.916H193.514Z" fill="#40C8EF"/>
</svg>
